Coordinates
version=1
nRows=14
nColumns=36
inDegrees=yes

Units are S.I. units (second, meters, Newtons, ...)
If the header above contains a line with 'inDegrees', this indicates whether rotational values are in degrees (yes) or radians (no).

endheader
time	pelvis_tilt	pelvis_list	pelvis_rotation	pelvis_tx	pelvis_ty	pelvis_tz	hip_flexion_r	hip_adduction_r	hip_rotation_r	knee_angle_r	knee_angle_r_beta	ankle_angle_r	subtalar_angle_r	mtp_angle_r	hip_flexion_l	hip_adduction_l	hip_rotation_l	knee_angle_l	knee_angle_l_beta	ankle_angle_l	subtalar_angle_l	mtp_angle_l	lumbar_extension	lumbar_bending	lumbar_rotation	arm_flex_r	arm_add_r	arm_rot_r	elbow_flex_r	pro_sup_r	arm_flex_l	arm_add_l	arm_rot_l	elbow_flex_l	pro_sup_l
      1.21000000	      2.02563597	      4.08682162	     93.75745873	     -0.26891781	      0.96425801	     -0.35642051	      5.91910689	      4.79256628	     -7.70016783	     20.56396699	      0.35890893	      8.19361131	     -4.78871072	     -7.49999917	     15.66185090	     -5.28478692	     -2.70859246	     66.57402206	      1.16193588	    -10.29544665	    -28.35245262	     -7.49999917	    -17.40067531	      2.90515329	     -1.00848344	      2.30930186	     -5.07957213	    -38.58936902	     42.42133950	     98.07739172	      9.81139909	     -5.12530218	    -25.25698475	     39.50023073	     84.84012563
      1.22000000	      1.72412892	      4.17148912	     93.40638013	     -0.26850998	      0.96540924	     -0.36703284	      4.87962733	      4.64507684	     -7.01345300	     20.14009616	      0.35151099	      8.56773191	     -5.04626611	     -7.49999921	     16.74926153	     -5.05779827	     -3.32524998	     65.73468479	      1.14728668	     -7.95040158	    -27.90074695	     -7.49999921	    -17.60719614	      2.44127796	     -0.57685781	      2.43688508	     -5.42657941	    -37.21443462	     43.10688055	     98.77349500	      9.34412114	     -4.87231683	    -26.29876555	     39.28173115	     85.22437942
      1.23000000	      1.42084623	      3.92143391	     93.23953631	     -0.26840351	      0.96592464	     -0.37742484	      4.23542959	      4.38015621	     -6.82382396	     19.75758229	      0.34483486	      8.92376227	     -4.78928820	     -7.49999922	     18.21546591	     -4.68688507	     -3.64643547	     64.67137499	      1.12872843	     -6.40298390	    -27.95749281	     -7.49999922	    -17.45660064	      2.04686929	     -0.38884320	      2.88480121	     -5.41814460	    -36.96028263	     43.58573521	     98.56285021	      8.76815510	     -4.91040446	    -26.47171823	     38.96256048	     85.09075909
      1.24000000	      0.97855666	      4.18814048	     92.86102972	     -0.26808668	      0.96710241	     -0.38816751	      3.03273806	      3.94163362	     -6.72868705	     19.45165249	      0.33949538	      9.65062076	     -3.83189289	     -7.49999926	     18.77749952	     -4.34853235	     -4.41904101	     63.00080909	      1.09957155	     -4.45641838	    -26.77613530	     -7.49999926	    -17.85837577	      1.44029775	      0.02620711	      3.17707448	     -5.67452833	    -35.96510280	     44.16844571	     98.81491401	      8.17940784	     -4.75173467	    -27.30214378	     38.84415451	     85.35288098
      1.25000000	      0.86006005	      3.86374335	     92.65346319	     -0.26779232	      0.96709952	     -0.39858332	      2.50850981	      3.85098246	     -6.67679837	     19.09409524	      0.33325483	     10.00022932	     -3.56032957	     -7.49999928	     20.12188920	     -4.30334899	     -4.97538591	     61.32900854	      1.07039313	     -3.50425002	    -26.38760254	     -7.49999928	    -17.60317251	      1.20139390	      0.34274890	      3.54762080	     -5.71199778	    -35.68908133	     44.68271209	     98.48348316	      7.47435115	     -4.76465317	    -27.44647500	     38.75472114	     85.16484061
      1.26000000	      0.41902997	      4.34860012	     92.11025777	     -0.26739748	      0.96831821	     -0.40959988	      1.04150382	      3.36018640	     -6.61551965	     18.74199849	      0.32710958	     10.47264646	     -2.39619588	     -7.49999931	     20.10491847	     -4.08535309	     -6.15183099	     58.92311941	      1.02840244	     -2.18332577	    -24.94730305	     -7.49999931	    -18.19167637	      0.59979129	      0.80121197	      3.89151839	     -5.99447879	    -34.68282614	     45.30630976	     98.64574995	      6.80635624	     -4.68310315	    -28.11504647	     38.68725400	     85.31117457
      1.27000000	      0.25308418	      4.23490571	     91.69079793	     -0.26702736	      0.96830102	     -0.42019204	      0.35076520	      3.12915176	     -6.70692011	     18.52707542	      0.32335847	     10.80956505	     -1.55868739	     -7.49999933	     20.84222097	     -4.04701365	     -7.01518143	     56.46254028	      0.98545723	     -1.45426166	    -24.07958474	     -7.49999933	    -18.16239027	      0.26578992	      1.31861519	      4.17562270	     -6.16989645	    -34.09964503	     45.94678840	     98.49231881	      6.15676859	     -4.56013643	    -28.61488580	     38.60827166	     85.28268107
      1.28000000	      0.05073890	      4.45254199	     91.17871623	     -0.26658808	      0.96853581	     -0.43092860	     -0.69306139	      2.84473870	     -6.73668836	     18.35771784	      0.32040262	     11.32453094	     -0.60697305	     -7.49999936	     21.00726724	     -4.02817633	     -8.14482537	     53.61536207	      0.93576460	     -0.77770260	    -23.03276622	     -7.49999936	    -18.47613972	     -0.10835731	      1.89534785	      4.46510784	     -6.44110719	    -33.30845184	     46.61240848	     98.34721028	      5.60964514	     -4.41959789	    -29.30918771	     38.47435563	     85.26138827
      1.29000000	      0.34711896	      4.00196869	     90.94653488	     -0.26648214	      0.96732138	     -0.44152444	     -0.95370904	      3.12559208	     -6.88106634	     18.26352702	      0.31875868	     11.63634166	     -0.46322558	     -7.49999937	     22.11924413	     -4.41423927	     -8.79000099	     50.98338551	      0.88982794	     -0.39179442	    -22.44200590	     -7.49999937	    -17.99816977	      0.14823544	      2.25770809	      4.82289298	     -6.59457385	    -33.05750070	     47.15720392	     97.79437783	      4.77990123	     -4.35828945	    -29.47975278	     38.34750034	     84.94350581
      1.30000000	      0.04438657	      4.71076820	     90.22638834	     -0.26583529	      0.96814906	     -0.45278348	     -2.65584266	      2.66332344	     -6.99758785	     17.87894108	      0.31204639	     11.95552087	      1.16711226	     -7.49999939	     21.32085332	     -4.35983461	    -10.38701177	     47.37456397	      0.82684212	      0.11069850	    -20.83698044	     -7.49999939	    -18.81704593	     -0.40271105	      2.95826941	      5.04829147	     -6.96576746	    -31.90380047	     47.93119927	     97.96285704	      4.32285375	     -4.15299019	    -30.52396552	     38.08686528	     85.07073217
      1.31000000	      0.15835108	      4.98293986	     89.83724514	     -0.26565750	      0.96780072	     -0.46388084	     -3.83739015	      2.68995248	     -7.25046469	     17.59064712	      0.30701471	     12.45204610	      2.26818037	     -7.49999940	     21.17274248	     -4.52553595	    -11.38242537	     43.94685175	      0.76701726	      0.57098358	    -19.54987414	     -7.49999940	    -19.16653478	     -0.38023295	      3.36225355	      5.33702036	     -7.30785913	    -31.03515925	     48.70374612	     98.14160208	      3.71174207	     -3.94489172	    -31.55255730	     37.99022052	     85.39043797
      1.32000000	      0.22657394	      5.08726388	     89.34768553	     -0.26567458	      0.96704598	     -0.47497285	     -4.74877760	      2.61196824	     -7.36455659	     17.46971623	      0.30490407	     12.75905543	      3.04474549	     -7.49999942	     21.12950309	     -4.61291837	    -12.51381010	     40.38626383	      0.70487328	      0.77963796	    -18.11095623	     -7.49999942	    -19.26440680	     -0.42359185	      3.88330569	      5.62601618	     -7.64288048	    -30.31297924	     49.30362311	     98.19443206	      3.08127916	     -3.66868931	    -32.43934078	     37.76124258	     85.66466516
      1.33000000	      0.36637041	      5.10867266	     88.74068832	     -0.26538815	      0.96598725	     -0.48583256	     -5.46885660	      2.60425974	     -7.34610922	     17.53573725	      0.30605635	     13.11988084	      3.67894924	     -7.49999943	     21.12505963	     -4.76516565	    -13.68888247	     36.76089322	      0.64159862	      0.90646751	    -16.24607777	     -7.49999943	    -19.30946221	     -0.42998539	      4.54351640	      5.91811336	     -7.99271390	    -29.67083003	     49.95315602	     98.22151580	      2.50763467	     -3.45279653	    -33.18943634	     37.53327764	     85.82746809
      1.34000000	      0.61140580	      5.24385900	     88.20793198	     -0.26511905	      0.96493142	     -0.49667206	     -6.33884432	      2.66722462	     -7.64799798	     17.54973970	      0.30630074	     13.56632585	      4.61786570	     -7.49999944	     21.01324295	     -5.03646987	    -14.94740770	     33.23261898	      0.58001862	      1.37554991	    -13.24216285	     -7.49999944	    -19.49498856	     -0.31926202	      5.04149117	      6.34621945	     -8.33888193	    -28.81599071	     50.44665393	     98.17172172	      1.86952951	     -3.22987647	    -34.11307325	     37.41107684	     86.01369158
